<svg width="1512" height="982" viewBox="0 0 1512 982" fill="none" xmlns="http://www.w3.org/2000/svg">
<path d="M1028.75 288.639C946.216 336.293 847.303 326.703 774.354 275.443L554.252 402.519C607.757 431.656 657.035 476.573 691.692 536.601L830.32 776.713C880.862 864.254 992.772 896.354 1082.81 844.368L1097.82 835.704C1088.46 744.398 1131.05 656.442 1213.59 608.788C1323.64 545.25 1464.23 580.805 1529.21 693.358C1592.75 803.409 1554.69 945.437 1444.64 1008.98C1362.1 1056.63 1263.19 1047.04 1190.24 995.779L1175.23 1004.44C997.651 1106.97 771.329 1044.21 670.246 869.132L531.617 629.02C479.631 538.978 366.664 510.823 279.123 561.364L261.615 571.473C272.035 658.834 228.382 750.735 148.344 796.944C35.792 861.927 -103.735 822.426 -167.273 712.375C-232.255 599.823 -195.256 461.74 -82.7033 396.758C-2.66597 350.548 97.3047 356.193 169.196 411.398L681.935 115.368C672.573 24.0617 715.169 -63.8938 797.707 -111.547C907.758 -175.086 1048.34 -139.53 1113.32 -26.978C1176.86 83.0733 1138.81 225.101 1028.75 288.639ZM853.203 123.203C871.976 155.718 912.872 168.791 947.888 148.574C980.403 129.801 992.032 86.4039 973.259 53.8887C953.042 18.8724 911.089 9.74528 878.574 28.5179C843.558 48.7346 832.986 88.1867 853.203 123.203ZM1389.15 774.225C1368.93 739.208 1326.98 730.081 1294.46 748.854C1259.44 769.07 1248.87 808.523 1269.09 843.539C1287.86 876.054 1328.76 889.126 1363.77 868.91C1396.29 850.137 1407.92 806.74 1389.15 774.225ZM-27.2074 631.508C-8.43478 664.023 32.4614 677.096 67.4777 656.879C99.9929 638.106 111.621 594.709 92.8485 562.194C72.6319 527.178 30.6786 518.05 -1.83661 536.823C-36.8529 557.04 -47.4241 596.492 -27.2074 631.508Z" fill="#58416F" fill-opacity="0.3"/>
</svg>
