<svg width="561" height="99" viewBox="0 0 561 99" fill="none" xmlns="http://www.w3.org/2000/svg">
<rect x="7.5" y="19.5" width="72" height="72" rx="7.5" stroke="white" stroke-width="5"/>
<path d="M10 33H77V27C77 24.2386 74.7614 22 72 22H15C12.2386 22 10 24.2386 10 27V33Z" fill="url(#paint0_linear_0_1)" fill-opacity="0.5"/>
<path fill-rule="evenodd" clip-rule="evenodd" d="M59.1551 66.2392C59.8767 67.1786 59.8349 68.6509 59.0617 69.5277C50.6869 79.0237 36.9594 80.0863 27.9165 69.5023C27.1548 68.6108 27.1322 67.1379 27.8659 66.2125C28.5997 65.287 29.8121 65.2595 30.5738 66.1511C38.0187 74.8647 49.425 74.0895 56.4484 66.1257C57.2216 65.249 58.4334 65.2998 59.1551 66.2392Z" fill="white"/>
<line x1="8.08008" y1="35.1" x2="78.9201" y2="35.1" stroke="white" stroke-width="5"/>
<path d="M253.938 40.342V47.768C256.57 42.504 261.051 39.872 267.38 39.872C274.085 39.872 278.535 42.88 280.728 48.896C281.793 46.076 283.579 43.8827 286.086 42.316C288.593 40.6867 291.538 39.872 294.922 39.872C299.622 39.872 303.319 41.376 306.014 44.384C308.771 47.3293 310.15 51.6847 310.15 57.45V88H296.426V59.706C296.426 57.0113 295.893 54.8807 294.828 53.314C293.763 51.7473 292.227 50.964 290.222 50.964C288.091 50.964 286.18 51.8413 284.488 53.596C282.859 55.288 282.044 58.3587 282.044 62.808V88H268.32V59.706C268.32 57.0113 267.787 54.8807 266.722 53.314C265.657 51.7473 264.121 50.964 262.116 50.964C259.985 50.964 258.074 51.8413 256.382 53.596C254.753 55.288 253.938 58.3587 253.938 62.808V88H240.214V40.342H253.938Z" fill="white"/>
<path d="M321.465 88V40.342H335.189V88H321.465ZM322.687 32.164C321.121 30.5973 320.337 28.7173 320.337 26.524C320.337 24.3307 321.121 22.4507 322.687 20.884C324.254 19.3173 326.134 18.534 328.327 18.534C330.521 18.534 332.401 19.3173 333.967 20.884C335.534 22.4507 336.317 24.3307 336.317 26.524C336.317 28.7173 335.534 30.5973 333.967 32.164C332.401 33.7307 330.521 34.514 328.327 34.514C326.134 34.514 324.254 33.7307 322.687 32.164Z" fill="white"/>
<path d="M360.698 40.342V48.426C361.889 45.794 363.706 43.726 366.15 42.222C368.657 40.6553 371.633 39.872 375.08 39.872C379.968 39.872 383.791 41.3447 386.548 44.29C389.305 47.1727 390.684 51.434 390.684 57.074V88H376.96V59.612C376.96 56.792 376.302 54.6613 374.986 53.22C373.67 51.716 371.821 50.964 369.44 50.964C366.933 50.964 364.834 51.9667 363.142 53.972C361.513 55.9147 360.698 58.86 360.698 62.808V88H346.974V40.342H360.698Z" fill="white"/>
<path d="M423.403 77.096C426.537 77.096 429.075 75.874 431.017 73.43C432.96 70.986 433.931 67.7273 433.931 63.654C433.931 59.706 432.866 56.6353 430.735 54.442C428.667 52.2487 426.192 51.152 423.309 51.152C420.427 51.152 417.983 52.3113 415.977 54.63C414.035 56.9487 413.063 60.176 413.063 64.312C413.063 68.1347 414.066 71.2367 416.071 73.618C418.077 75.9367 420.521 77.096 423.403 77.096ZM433.931 21.542H447.655V88H433.931V80.574C430.735 85.9007 425.973 88.564 419.643 88.564C413.439 88.564 408.457 86.1513 404.697 81.326C401 76.5007 399.151 70.7353 399.151 64.03C399.151 56.51 401.094 50.588 404.979 46.264C408.865 41.94 413.784 39.778 419.737 39.778C425.941 39.778 430.673 42.41 433.931 47.674V21.542Z" fill="white"/>
<path d="M486.508 59.8V58.672C486.069 53.0947 483.625 50.306 479.176 50.306C476.983 50.306 475.04 51.1207 473.348 52.75C471.656 54.3167 470.528 56.6667 469.964 59.8H486.508ZM496.378 73.806V85.274C493.119 87.4047 488.137 88.47 481.432 88.47C473.599 88.47 467.489 86.214 463.102 81.702C458.778 77.1273 456.616 71.268 456.616 64.124C456.616 56.5413 458.715 50.6193 462.914 46.358C467.175 42.034 472.408 39.872 478.612 39.872C485.004 39.872 490.049 41.752 493.746 45.512C497.443 49.2093 499.292 54.7553 499.292 62.15C499.292 63.5913 499.041 66.0667 498.54 69.576H470.528C471.468 72.208 473.097 74.2447 475.416 75.686C477.735 77.1273 480.523 77.848 483.782 77.848C488.607 77.848 492.806 76.5007 496.378 73.806Z" fill="white"/>
<path d="M530.989 77.096C534.122 77.096 536.66 75.874 538.603 73.43C540.546 70.986 541.517 67.7273 541.517 63.654C541.517 59.706 540.452 56.6353 538.321 54.442C536.253 52.2487 533.778 51.152 530.895 51.152C528.012 51.152 525.569 52.3113 523.563 54.63C521.621 56.9487 520.649 60.176 520.649 64.312C520.649 68.1347 521.652 71.2367 523.657 73.618C525.662 75.9367 528.106 77.096 530.989 77.096ZM541.517 21.542H555.241V88H541.517V80.574C538.321 85.9007 533.559 88.564 527.229 88.564C521.025 88.564 516.043 86.1513 512.283 81.326C508.586 76.5007 506.737 70.7353 506.737 64.03C506.737 56.51 508.68 50.588 512.565 46.264C516.451 41.94 521.37 39.778 527.323 39.778C533.527 39.778 538.258 42.41 541.517 47.674V21.542Z" fill="white"/>
<path d="M114.194 40.342V48.614C117.014 42.6607 122.027 39.684 129.234 39.684C133.871 39.684 137.569 41.094 140.326 43.914C143.083 46.734 144.462 50.494 144.462 55.194V88H137.036V57.168C137.036 53.6587 136.127 50.9953 134.31 49.178C132.555 47.298 130.237 46.358 127.354 46.358C123.782 46.358 120.68 47.7367 118.048 50.494C115.479 53.2513 114.194 57.074 114.194 61.962V88H106.862V40.342H114.194Z" fill="white"/>
<path d="M187.988 61.116V59.236C187.988 55.288 186.922 52.1547 184.792 49.836C182.661 47.4547 179.716 46.264 175.956 46.264C172.384 46.264 169.344 47.5487 166.838 50.118C164.331 52.6873 162.858 56.3533 162.42 61.116H187.988ZM192.406 78.6V85.556C188.708 87.4987 184.196 88.47 178.87 88.47C171.663 88.47 165.835 86.2767 161.386 81.89C156.999 77.4407 154.806 71.5813 154.806 64.312C154.806 56.7293 156.78 50.7447 160.728 46.358C164.676 41.9713 169.752 39.778 175.956 39.778C181.909 39.778 186.64 41.6893 190.15 45.512C193.659 49.3347 195.414 54.7553 195.414 61.774C195.414 63.7793 195.257 65.628 194.944 67.32H162.42C162.984 72.02 164.77 75.6233 167.778 78.13C170.786 80.6367 174.734 81.89 179.622 81.89C184.948 81.89 189.21 80.7933 192.406 78.6Z" fill="white"/>
<path d="M216.983 46.358V74.276C216.983 79.352 219.364 81.89 224.127 81.89C226.571 81.89 228.733 81.1693 230.613 79.728V86.778C228.545 87.906 226.226 88.47 223.657 88.47C214.257 88.47 209.557 83.676 209.557 74.088V46.358H201.943V40.342H209.557V28.498H216.983V40.342H230.143V46.358H216.983Z" fill="white"/>
<path fill-rule="evenodd" clip-rule="evenodd" d="M342.635 36.8634C341.725 36.2367 341.509 34.9943 342.012 34.01C345.264 27.6468 343.661 19.67 337.821 15.1056C331.198 9.92896 321.632 11.1017 316.456 17.725C312.607 22.6487 312.268 29.1986 315.068 34.3626C315.595 35.3339 315.411 36.581 314.517 37.231V37.231C313.624 37.8805 312.363 37.6878 311.81 36.7321C307.998 30.1437 308.329 21.6268 313.304 15.2618C319.841 6.89791 331.921 5.41697 340.284 11.954C347.803 17.8306 349.76 28.1864 345.329 36.2952C344.8 37.2639 343.545 37.4892 342.635 36.8634V36.8634Z" fill="url(#paint1_linear_0_1)"/>
<path fill-rule="evenodd" clip-rule="evenodd" d="M350.69 37.2175C349.684 36.7598 349.249 35.5747 349.615 34.5319C352.717 25.7026 350.042 15.5087 342.26 9.42652C332.5 1.79852 318.405 3.52662 310.777 13.2863C305.87 19.5643 304.834 27.6363 307.318 34.6269C307.687 35.6671 307.257 36.852 306.254 37.3136V37.3136C305.25 37.7757 304.054 37.338 303.67 36.3015C300.591 27.9887 301.765 18.3203 307.625 10.8231C316.613 -0.677176 333.223 -2.71347 344.723 6.27492C353.992 13.5197 357.113 25.7156 353.269 36.1966C352.889 37.233 351.695 37.6747 350.69 37.2175V37.2175Z" fill="url(#paint2_linear_0_1)"/>
<defs>
<linearGradient id="paint0_linear_0_1" x1="77" y1="28" x2="10" y2="28" gradientUnits="userSpaceOnUse">
<stop stop-color="white" stop-opacity="0.7"/>
<stop offset="1" stop-color="white" stop-opacity="0.3"/>
</linearGradient>
<linearGradient id="paint1_linear_0_1" x1="339.564" y1="17.9507" x2="317.191" y2="41.081" gradientUnits="userSpaceOnUse">
<stop stop-color="white"/>
<stop offset="1" stop-color="white" stop-opacity="0"/>
</linearGradient>
<linearGradient id="paint2_linear_0_1" x1="343.5" y1="14" x2="313.954" y2="44.6835" gradientUnits="userSpaceOnUse">
<stop stop-color="white"/>
<stop offset="1" stop-color="white" stop-opacity="0"/>
</linearGradient>
</defs>
</svg>
